<svg xmlns="http://www.w3.org/2000/svg" viewBox="0 0 500 500"><g id="freepik--background-simple--inject-74"><path d="M216.2,333.09c87.39,14.16,194.08,4.8,214.48-94.94,18.5-90.49-64.76-166.12-158.24-137-40.32,12.56-59.12,51.14-102.4,57.67S71.79,149.5,54.16,205.08C26.86,291.15,158.69,323.77,216.2,333.09Z" style="fill:#3DDC97"></path><path d="M216.2,333.09c87.39,14.16,194.08,4.8,214.48-94.94,18.5-90.49-64.76-166.12-158.24-137-40.32,12.56-59.12,51.14-102.4,57.67S71.79,149.5,54.16,205.08C26.86,291.15,158.69,323.77,216.2,333.09Z" style="fill:#fff;opacity:0.9"></path></g><g id="freepik--Shadow--inject-74"><ellipse id="freepik--path--inject-74" cx="250" cy="416.24" rx="193.89" ry="11.32" style="fill:#f5f5f5"></ellipse></g><g id="freepik--hotdog-booth--inject-74"><rect x="313.24" y="85.32" width="7.54" height="271.94" transform="translate(94.8 -95.08) rotate(20)" style="fill:#263238"></rect><path d="M371.82,70.68h0a1.17,1.17,0,0,0-1.47.66l-8.63,21.53,3.59,1.31,7.22-22.05A1.17,1.17,0,0,0,371.82,70.68Z" style="fill:#263238"></path><path d="M365,89.56c-57.62-21-113.72-12.16-121.71,9.78l208.67,75.94C459.89,153.34,422.57,110.53,365,89.56Z" style="fill:#3DDC97"></path><path d="M365,89.56c-35.86-13-74.32,2.18-82.31,24.12l129.87,47.26C420.49,139,400.82,102.61,365,89.56Z" style="fill:#fff"></path><path d="M365,89.56c-13.95-5.08-34.66,16.61-42.64,38.55l50.53,18.4C380.83,124.57,378.91,94.64,365,89.56Z" style="fill:#3DDC97"></path><path d="M162.84,342.56a36.84,36.84,0,1,0,36.84,36.84A36.84,36.84,0,0,0,162.84,342.56Zm26.72,34.34H168.87l14.62-14.62A26.74,26.74,0,0,1,189.56,376.9Zm-24.22-24.22A26.72,26.72,0,0,1,180,358.74l-14.62,14.62Zm-5,20.68-14.63-14.62a26.72,26.72,0,0,1,14.63-6.06Zm0,32.76a26.81,26.81,0,0,1-14.63-6.07l14.63-14.62Zm5-20.69L180,400.05a26.81,26.81,0,0,1-14.62,6.07Zm-23.16-23.15L156.8,376.9H136.11A26.74,26.74,0,0,1,142.18,362.28Zm-6.07,19.62H156.8l-14.62,14.62A26.81,26.81,0,0,1,136.11,381.9Zm47.38,14.62L168.87,381.9h20.69A26.81,26.81,0,0,1,183.49,396.52Z" style="fill:#3DDC97"></path><path d="M162.84,342.56a36.84,36.84,0,1,0,36.84,36.84A36.84,36.84,0,0,0,162.84,342.56Zm26.72,34.34H168.87l14.62-14.62A26.74,26.74,0,0,1,189.56,376.9Zm-24.22-24.22A26.72,26.72,0,0,1,180,358.74l-14.62,14.62Zm-5,20.68-14.63-14.62a26.72,26.72,0,0,1,14.63-6.06Zm0,32.76a26.81,26.81,0,0,1-14.63-6.07l14.63-14.62Zm5-20.69L180,400.05a26.81,26.81,0,0,1-14.62,6.07Zm-23.16-23.15L156.8,376.9H136.11A26.74,26.74,0,0,1,142.18,362.28Zm-6.07,19.62H156.8l-14.62,14.62A26.81,26.81,0,0,1,136.11,381.9Zm47.38,14.62L168.87,381.9h20.69A26.81,26.81,0,0,1,183.49,396.52Z" style="opacity:0.2"></path><path d="M283.28,342.56a36.84,36.84,0,1,0,36.84,36.84A36.84,36.84,0,0,0,283.28,342.56ZM310,376.9H289.31l14.62-14.62A26.67,26.67,0,0,1,310,376.9Zm-24.22-24.22a26.69,26.69,0,0,1,14.62,6.06l-14.62,14.62Zm-5,20.68-14.62-14.62a26.69,26.69,0,0,1,14.62-6.06Zm0,32.76a26.78,26.78,0,0,1-14.62-6.07l14.62-14.62Zm5-20.69,14.62,14.62a26.78,26.78,0,0,1-14.62,6.07Zm-23.16-23.15,14.62,14.62H256.56A26.66,26.66,0,0,1,262.62,362.28Zm-6.06,19.62h20.68l-14.62,14.62A26.72,26.72,0,0,1,256.56,381.9Zm47.37,14.62L289.31,381.9H310A26.73,26.73,0,0,1,303.93,396.52Z" style="fill:#3DDC97"></path><path d="M283.28,342.56a36.84,36.84,0,1,0,36.84,36.84A36.84,36.84,0,0,0,283.28,342.56ZM310,376.9H289.31l14.62-14.62A26.67,26.67,0,0,1,310,376.9Zm-24.22-24.22a26.69,26.69,0,0,1,14.62,6.06l-14.62,14.62Zm-5,20.68-14.62-14.62a26.69,26.69,0,0,1,14.62-6.06Zm0,32.76a26.78,26.78,0,0,1-14.62-6.07l14.62-14.62Zm5-20.69,14.62,14.62a26.78,26.78,0,0,1-14.62,6.07Zm-23.16-23.15,14.62,14.62H256.56A26.66,26.66,0,0,1,262.62,362.28Zm-6.06,19.62h20.68l-14.62,14.62A26.72,26.72,0,0,1,256.56,381.9Zm47.37,14.62L289.31,381.9H310A26.73,26.73,0,0,1,303.93,396.52Z" style="opacity:0.2"></path><rect x="147.83" y="258.11" width="229.33" height="129.78" style="fill:#3DDC97"></rect><rect x="147.83" y="249.22" width="231.46" height="8.89" style="fill:#3DDC97"></rect><polygon points="377.17 387.89 377.17 258.11 379.29 258.11 379.29 249.22 348.38 249.22 311.04 387.89 377.17 387.89" style="opacity:0.2"></polygon><rect x="109.72" y="258.11" width="38.11" height="129.78" transform="translate(257.56 646) rotate(180)" style="fill:#3DDC97"></rect><rect x="109.72" y="258.11" width="38.11" height="129.78" transform="translate(257.56 646) rotate(180)" style="opacity:0.2"></rect><rect x="107.6" y="249.22" width="40.24" height="8.89" transform="translate(255.43 507.33) rotate(180)" style="fill:#3DDC97"></rect><rect x="107.6" y="249.22" width="40.24" height="8.89" transform="translate(255.43 507.33) rotate(180)" style="opacity:0.2"></rect><path d="M201,342.56a36.84,36.84,0,1,0,36.84,36.84A36.84,36.84,0,0,0,201,342.56Zm26.72,34.34H207l14.62-14.62A26.74,26.74,0,0,1,227.67,376.9Zm-24.22-24.22a26.72,26.72,0,0,1,14.62,6.06l-14.62,14.62Zm-5,20.68-14.62-14.62a26.66,26.66,0,0,1,14.62-6.06Zm0,32.76a26.74,26.74,0,0,1-14.62-6.07l14.62-14.62Zm5-20.69,14.62,14.62a26.81,26.81,0,0,1-14.62,6.07Zm-23.16-23.15,14.62,14.62H174.23A26.66,26.66,0,0,1,180.29,362.28Zm-6.06,19.62h20.68l-14.62,14.62A26.72,26.72,0,0,1,174.23,381.9Zm47.37,14.62L207,381.9h20.69A26.81,26.81,0,0,1,221.6,396.52Z" style="fill:#3DDC97"></path><path d="M201,342.56a36.84,36.84,0,1,0,36.84,36.84A36.84,36.84,0,0,0,201,342.56Zm26.72,34.34H207l14.62-14.62A26.74,26.74,0,0,1,227.67,376.9Zm-24.22-24.22a26.72,26.72,0,0,1,14.62,6.06l-14.62,14.62Zm-5,20.68-14.62-14.62a26.66,26.66,0,0,1,14.62-6.06Zm0,32.76a26.74,26.74,0,0,1-14.62-6.07l14.62-14.62Zm5-20.69,14.62,14.62a26.81,26.81,0,0,1-14.62,6.07Zm-23.16-23.15,14.62,14.62H174.23A26.66,26.66,0,0,1,180.29,362.28Zm-6.06,19.62h20.68l-14.62,14.62A26.72,26.72,0,0,1,174.23,381.9Zm47.37,14.62L207,381.9h20.69A26.81,26.81,0,0,1,221.6,396.52Z" style="fill:#fff;opacity:0.2"></path><path d="M321.39,342.56a36.84,36.84,0,1,0,36.84,36.84A36.84,36.84,0,0,0,321.39,342.56Zm26.72,34.34H327.43l14.62-14.62A26.66,26.66,0,0,1,348.11,376.9Zm-24.22-24.22a26.69,26.69,0,0,1,14.62,6.06l-14.62,14.62Zm-5,20.68-14.62-14.62a26.69,26.69,0,0,1,14.62-6.06Zm0,32.76a26.78,26.78,0,0,1-14.62-6.07l14.62-14.62Zm5-20.69,14.62,14.62a26.78,26.78,0,0,1-14.62,6.07Zm-23.15-23.15,14.62,14.62H294.67A26.67,26.67,0,0,1,300.74,362.28Zm-6.07,19.62h20.69l-14.62,14.62A26.73,26.73,0,0,1,294.67,381.9Zm47.38,14.62L327.43,381.9h20.68A26.72,26.72,0,0,1,342.05,396.52Z" style="fill:#3DDC97"></path><path d="M321.39,342.56a36.84,36.84,0,1,0,36.84,36.84A36.84,36.84,0,0,0,321.39,342.56Zm26.72,34.34H327.43l14.62-14.62A26.66,26.66,0,0,1,348.11,376.9Zm-24.22-24.22a26.69,26.69,0,0,1,14.62,6.06l-14.62,14.62Zm-5,20.68-14.62-14.62a26.69,26.69,0,0,1,14.62-6.06Zm0,32.76a26.78,26.78,0,0,1-14.62-6.07l14.62-14.62Zm5-20.69,14.62,14.62a26.78,26.78,0,0,1-14.62,6.07Zm-23.15-23.15,14.62,14.62H294.67A26.67,26.67,0,0,1,300.74,362.28Zm-6.07,19.62h20.69l-14.62,14.62A26.73,26.73,0,0,1,294.67,381.9Zm47.38,14.62L327.43,381.9h20.68A26.72,26.72,0,0,1,342.05,396.52Z" style="fill:#fff;opacity:0.2"></path><rect x="109.72" y="258.11" width="267.44" height="3.78" style="opacity:0.2"></rect><polygon points="153.06 214.11 153.06 206.89 151.11 206.89 150.4 196.11 148.79 196.11 148.08 206.89 146.13 206.89 146.13 214.11 142.39 214.11 142.39 249.22 156.8 249.22 156.8 214.11 153.06 214.11" style="fill:#3DDC97"></polygon><polygon points="153.06 214.11 153.06 206.89 151.11 206.89 150.4 196.11 148.79 196.11 148.08 206.89 146.13 206.89 146.13 214.11 142.39 214.11 142.39 249.22 156.8 249.22 156.8 214.11 153.06 214.11" style="fill:#fff;opacity:0.4"></polygon><polygon points="171.39 214.11 171.39 206.89 169.45 206.89 168.74 196.11 167.12 196.11 166.41 206.89 164.47 206.89 164.47 214.11 160.72 214.11 160.72 249.22 175.13 249.22 175.13 214.11 171.39 214.11" style="fill:#3DDC97"></polygon><polygon points="171.39 214.11 171.39 206.89 169.45 206.89 168.74 196.11 167.12 196.11 166.41 206.89 164.47 206.89 164.47 214.11 160.72 214.11 160.72 249.22 175.13 249.22 175.13 214.11 171.39 214.11" style="opacity:0.2"></polygon><path d="M310.05,311.25a318.2,318.2,0,0,1-99.84,10.82c-10.86-.54-18.76-9.33-17.59-18.75h0c1.17-9.44,9.86-16.22,19.33-15.75a283.81,283.81,0,0,0,89-9.65c9.14-2.48,19.08,2.28,22.25,11.24h0C326.37,298.11,320.54,308.4,310.05,311.25Z" style="fill:#3DDC97"></path><path d="M310.05,311.25a318.2,318.2,0,0,1-99.84,10.82c-10.86-.54-18.76-9.33-17.59-18.75h0c1.17-9.44,9.86-16.22,19.33-15.75a283.81,283.81,0,0,0,89-9.65c9.14-2.48,19.08,2.28,22.25,11.24h0C326.37,298.11,320.54,308.4,310.05,311.25Z" style="fill:#fff;opacity:0.4"></path><path d="M314.63,319.28a341.45,341.45,0,0,1-107.17,11.61c-11.65-.58-20.14-10-18.88-20.12h0c1.26-10.13,10.58-17.41,20.75-16.91a304.35,304.35,0,0,0,95.54-10.36c9.82-2.66,20.48,2.45,23.88,12.07h0C332.14,305.18,325.88,316.22,314.63,319.28Z" style="fill:#3DDC97"></path><path d="M311.54,325a318.23,318.23,0,0,1-99.85,10.82c-10.85-.54-18.75-9.33-17.58-18.75h0c1.17-9.44,9.86-16.21,19.32-15.75a283.74,283.74,0,0,0,89-9.65c9.15-2.48,19.09,2.28,22.25,11.24h0C327.86,311.81,322,322.1,311.54,325Z" style="fill:#3DDC97"></path><path d="M311.54,325a318.23,318.23,0,0,1-99.85,10.82c-10.85-.54-18.75-9.33-17.58-18.75h0c1.17-9.44,9.86-16.21,19.32-15.75a283.74,283.74,0,0,0,89-9.65c9.15-2.48,19.09,2.28,22.25,11.24h0C327.86,311.81,322,322.1,311.54,325Z" style="fill:#fff;opacity:0.4"></path><path d="M227.15,308.49a8.13,8.13,0,0,1-2.08-.27A4,4,0,0,1,222.2,306a3.58,3.58,0,0,1,.64-3.35,11.34,11.34,0,0,1,2.11-1.9c1.66-1.27,2.67-2.12,2.27-3.62a2.18,2.18,0,0,0-1.1-1.43c-1.48-.79-4.17-.32-6.2.38a18.87,18.87,0,0,0-8.43,6.22,5.08,5.08,0,0,0-1.42,3.26.89.89,0,0,1-.82,1,.9.9,0,0,1-1-.82c-.12-1.37.47-2.85,1.79-4.53a20.34,20.34,0,0,1,9.26-6.81c1.48-.51,5.2-1.56,7.64-.27a3.93,3.93,0,0,1,2,2.56c.73,2.74-1.3,4.28-2.92,5.51a9.33,9.33,0,0,0-1.77,1.57,1.79,1.79,0,0,0-.38,1.61c.26.71,1.24,1,1.65,1.15a6.62,6.62,0,0,0,5.76-1.24,11.75,11.75,0,0,0,2.67-4c.34-.69.7-1.4,1.09-2a14.66,14.66,0,0,1,7.07-6.14c2.23-.88,7.24-1.75,8.5,1.17a3.69,3.69,0,0,1-.13,3,11.64,11.64,0,0,1-1.89,2.65c-1.06,1.24-2.16,2.53-2,3.77a1.75,1.75,0,0,0,1,1.4,3.35,3.35,0,0,0,2.6-.35c2.73-1.25,4.24-3.63,5.83-6.15l.25-.39c1.43-2.25,3.05-4.81,5.26-6.42,1.3-1,3.47-1.75,5.24-.84,2.2,1.14,2.07,4.07,1.3,6.23-.16.45-.35.9-.54,1.35a13.48,13.48,0,0,0-.75,2,3.43,3.43,0,0,0,.34,2.77c1.16,1.5,4.56-.53,5.57-1.19a18.44,18.44,0,0,0,5.84-6.52c.48-.86.92-1.77,1.34-2.66s1-2,1.56-3a13,13,0,0,1,4-4.65,3.66,3.66,0,0,1,4.52.51,4,4,0,0,1,.51,3.78c-.21.71-.46,1.41-.71,2.11s-.43,1.21-.62,1.82c-.62,2-.64,3.66-.06,4.49a2.67,2.67,0,0,0,2.26.84,12.81,12.81,0,0,0,8.38-2.95,16,16,0,0,0,5.42-8.92c.43-2.08.15-4.53-1.06-5a.9.9,0,1,1,.7-1.66c2.27,1,2.7,4.24,2.12,7.06a17.9,17.9,0,0,1-6.05,10,14.55,14.55,0,0,1-9.56,3.35,4.39,4.39,0,0,1-3.68-1.61c-1.18-1.67-.75-4.21-.19-6,.2-.64.42-1.26.65-1.89s.48-1.35.68-2a2.33,2.33,0,0,0-.16-2.09,1.91,1.91,0,0,0-2.25-.12,11,11,0,0,0-3.37,4c-.54.94-1,2-1.49,2.92s-.89,1.85-1.4,2.76a20.21,20.21,0,0,1-6.43,7.15c-3.68,2.39-6.51,2.67-8,.79a5,5,0,0,1-.66-4.32,14.65,14.65,0,0,1,.83-2.28c.18-.42.35-.83.5-1.26.4-1.11.82-3.37-.43-4-1-.5-2.42,0-3.35.69-1.93,1.41-3.46,3.82-4.8,5.94l-.25.38c-1.66,2.63-3.38,5.35-6.59,6.83a5,5,0,0,1-4,.37,3.5,3.5,0,0,1-2.15-2.88c-.21-2,1.21-3.66,2.45-5.12a10,10,0,0,0,1.62-2.22A1.93,1.93,0,0,0,249,295c-.63-1.46-4.42-.9-6.19-.2a12.87,12.87,0,0,0-6.19,5.39c-.35.59-.68,1.24-1,1.92a13.09,13.09,0,0,1-3.15,4.57A8.47,8.47,0,0,1,227.15,308.49Z" style="fill:#fafafa"></path></g></svg>