<svg xmlns="http://www.w3.org/2000/svg" viewBox="0 0 500 500"><g id="freepik--Floor--inject-78"><ellipse id="freepik--floor--inject-78" cx="250.76" cy="322.02" rx="242.11" ry="139.78" style="fill:#f5f5f5"></ellipse></g><g id="freepik--Shadows--inject-78"><path id="freepik--Shadow--inject-78" d="M252.77,368.5l-99.49,57.44a10.76,10.76,0,0,1-9.7,0L35,363.26c-2.68-1.55-2.68-4.05,0-5.6l99.51-57.45a10.7,10.7,0,0,1,9.7,0L252.77,362.9C255.44,364.45,255.44,367,252.77,368.5Z" style="fill:#e0e0e0"></path><path id="freepik--shadow--inject-78" d="M240.58,158.45,150.09,210.7c-1.92,1.1-1.92,2.89,0,4L360,336a11,11,0,0,0,7.32,1c39.85-10.91,71-29.5,91-52.18a3.2,3.2,0,0,0-.87-5L247.51,158.45A7.69,7.69,0,0,0,240.58,158.45Z" style="fill:#e0e0e0"></path></g><g id="freepik--Clouds--inject-78"><g id="freepik--clouds--inject-78"><path d="M81.71,74.57l-3.08,1.18V69c0-5.37-4.28-6.66-8.93-4h0c-4.65,2.68-8.43,9.22-8.43,14.59v1a4.5,4.5,0,0,0-3.9.6h0a13.42,13.42,0,0,0-6.07,10.5v.45L47,94.6a8.8,8.8,0,0,0-4,6.91c0,2.55,1.79,3.58,4,2.3l34.69-20a8.79,8.79,0,0,0,4-6.91C85.7,74.32,83.92,73.29,81.71,74.57Z" style="fill:#f0f0f0"></path><path d="M118.73,92.49l-5.57,3.22c0-.25,0-.5,0-.74V93.35c0-2.87-2-4-4.5-2.6A8.66,8.66,0,0,0,106,93.33c-.41-3.61-3.25-5-6.69-3A14.91,14.91,0,0,0,92.58,102v2.42a6.31,6.31,0,0,0,.57,2.8l-4.63,2.67A5.52,5.52,0,0,0,86,114.26c0,1.6,1.12,2.24,2.51,1.45l30.21-17.45a5.54,5.54,0,0,0,2.5-4.33C121.23,92.34,120.11,91.69,118.73,92.49Z" style="fill:#f0f0f0"></path></g></g><g id="freepik--food-truck--inject-78"><path d="M436.41,185.94v14.12c0,1.41.93,2.21,2.12,2.81s-1-16.26-1-16.26Z" style="fill:#e0e0e0"></path><path d="M437.53,186.61v13.54c0,2.63,1.52,3.88,3.79,2.56l1.75-1a9.07,9.07,0,0,0,4.12-7.13V181Z" style="fill:#ebebeb"></path><polygon points="447.19 181.04 446.06 180.36 436.4 185.94 437.53 186.61 447.19 181.04" style="fill:#fafafa"></polygon><path d="M431.53,215.24a.78.78,0,0,1-.68-.38.8.8,0,0,1,.26-1.1l8.95-5.57a3.2,3.2,0,0,0,1.5-2.72V191.39a.8.8,0,0,1,1.6,0v14.08a4.75,4.75,0,0,1-2.26,4.07L432,215.12A.79.79,0,0,1,431.53,215.24Z" style="fill:#3DDC97"></path><path d="M431.53,215.24a.78.78,0,0,1-.68-.38.8.8,0,0,1,.26-1.1l8.95-5.57a3.2,3.2,0,0,0,1.5-2.72V191.39a.8.8,0,0,1,1.6,0v14.08a4.75,4.75,0,0,1-2.26,4.07L432,215.12A.79.79,0,0,1,431.53,215.24Z" style="opacity:0.5"></path><path d="M180.08,205.76l16.26-7.5s-1.62-10.63-10.85-8.11S180.08,205.76,180.08,205.76Z" style="fill:#3DDC97"></path><path d="M180.08,205.76l16.26-7.5s-1.62-10.63-10.85-8.11S180.08,205.76,180.08,205.76Z" style="opacity:0.5"></path><path d="M315.46,284l16.24-7.5s-1.27-15.28-12-11.63S315.46,284,315.46,284Z" style="fill:#3DDC97"></path><path d="M315.46,284l16.24-7.5s-1.27-15.28-12-11.63S315.46,284,315.46,284Z" style="opacity:0.5"></path><path d="M189,203.92,185.53,197l8.31-4.82h0c2.65-1.52,6.17-1.34,10,.89,8.22,4.74,14.87,17,14.87,27.31,0,5.42-1.82,9.25-4.74,11h0l-.12.07h0l-8.53,4.92L201.66,229C194.68,223.68,189.29,213.14,189,203.92Z" style="fill:#263238"></path><path d="M180.35,208.19c0,8.92,5,19.24,11.58,24.95l0,0a22,22,0,0,0,3.26,2.33c8.22,4.75,14.88.2,14.87-10.14,0-7.82-3.8-16.71-9.2-22.64l0,0a24.17,24.17,0,0,0-5.63-4.64C187,193.3,180.35,197.84,180.35,208.19Z" style="fill:#37474f"></path><path d="M195.22,204.29c-5.22-3-9.46.12-9.46,7s4.24,14.93,9.46,17.95,9.46-.13,9.46-7S200.45,207.3,195.22,204.29Z" style="fill:#455a64"></path><path d="M180.35,208.19c0,8.92,5,19.24,11.58,24.95a42.26,42.26,0,0,1-9.43-18.25c-1.26-6-.78-14.52,4.34-16.69s11.87,2.4,14,4.48a24.17,24.17,0,0,0-5.63-4.64C187,193.3,180.35,197.84,180.35,208.19Z" style="fill:#455a64"></path><path d="M195.22,210.29c-2.71-1.56-4.91.07-4.91,3.65s2.2,7.75,4.91,9.31,4.91-.06,4.91-3.64S197.93,211.86,195.22,210.29Z" style="fill:#e0e0e0"></path><path d="M193.66,210.23a4,4,0,0,0-1.08-.44c-1.37.37-2.27,1.86-2.27,4.15a12.42,12.42,0,0,0,2.76,7.41,5.46,5.46,0,0,0,.59.39c2.4,1.4,4.36-.05,4.36-3.23S196.06,211.62,193.66,210.23Z" style="fill:#f5f5f5"></path><path d="M324.39,282l-3.49-6.94,8.31-4.81h0c2.64-1.52,6.17-1.35,10,.88,8.22,4.74,14.87,17,14.87,27.32,0,5.42-1.82,9.24-4.74,11h0l-.12.06h0l-8.53,4.93L337,307.14C330.05,301.8,324.66,291.27,324.39,282Z" style="fill:#263238"></path><path d="M315.72,286.31c0,8.92,4.95,19.24,11.58,24.95l0,0a22,22,0,0,0,3.27,2.35c8.21,4.74,14.88.2,14.87-10.15,0-7.81-3.8-16.71-9.2-22.63l0-.05a23.87,23.87,0,0,0-5.63-4.63C322.38,271.43,315.72,276,315.72,286.31Z" style="fill:#37474f"></path><path d="M330.59,282.41c-5.22-3-9.46.13-9.46,7s4.24,14.94,9.46,18,9.46-.13,9.46-7S335.82,285.43,330.59,282.41Z" style="fill:#455a64"></path><path d="M330.59,288.42c-2.71-1.57-4.91.06-4.91,3.64s2.2,7.75,4.91,9.32,4.91-.07,4.91-3.65S333.3,290,330.59,288.42Z" style="fill:#e0e0e0"></path><path d="M329,288.35a4.26,4.26,0,0,0-1.08-.43c-1.37.36-2.27,1.85-2.27,4.14a12.4,12.4,0,0,0,2.76,7.41,5.57,5.57,0,0,0,.59.4c2.4,1.39,4.36-.06,4.36-3.24S331.43,289.75,329,288.35Z" style="fill:#f5f5f5"></path><path d="M315.72,286.31c0,8.92,4.95,19.24,11.58,24.95A42.2,42.2,0,0,1,317.87,293c-1.26-6-.78-14.52,4.33-16.68s11.88,2.39,14,4.47a23.87,23.87,0,0,0-5.63-4.63C322.38,271.43,315.72,276,315.72,286.31Z" style="fill:#455a64"></path><path d="M378.69,313.76a3.69,3.69,0,0,1-5.55,3.47l-16.64-9.61L351,304.44a1.34,1.34,0,0,0,.07-.52,2.56,2.56,0,0,0,.08-.81c0-11.39-8-25.22-17.9-30.92s-17.82-1.11-17.82,10.28V284l-99.8-57.63a3.17,3.17,0,0,0,.07-.81c0-11.39-8-25.22-17.82-30.91s-17.83-1.11-17.83,10.28v.88l-14-8.06V86.25l155.28,89.64,26.53,19.54L360,253.93l15.53,22.81,1.84,22.74Z" style="fill:#3DDC97"></path><path d="M378.69,313.76a3.69,3.69,0,0,1-5.55,3.47l-16.64-9.61L351,304.44a1.34,1.34,0,0,0,.07-.52,2.56,2.56,0,0,0,.08-.81c0-11.39-8-25.22-17.9-30.92s-17.82-1.11-17.82,10.28V284l-99.8-57.63a3.17,3.17,0,0,0,.07-.81c0-11.39-8-25.22-17.82-30.91s-17.83-1.11-17.83,10.28v.88l-14-8.06V86.25l155.28,89.64,26.53,19.54L360,253.93l15.53,22.81,1.84,22.74Z" style="opacity:0.15"></path><path d="M333.31,197.27v36c0,1.33-.93,1.87-2.07,1.2l-29.91-17.26a4.58,4.58,0,0,1-2.08-3.59V175.73c0-1.33.93-1.86,2.08-1.2l18,10.38c1.15.67,2.94,1.84,4,2.62l8.06,5.93A5.3,5.3,0,0,1,333.31,197.27Z" style="fill:#455a64"></path><path d="M342.92,241.25a7.65,7.65,0,0,1-3.46-6V203.36c0-2.2.82-3.38,1.83-2.62l1.82,1.37a8.25,8.25,0,0,1,2.75,4.39l7.38,38.28c.29,1.51-.55,2.11-1.88,1.34Z" style="fill:#455a64"></path><g style="opacity:0.15"><path d="M312.58,278.7a2,2,0,0,1-1-.29l-14.06-8.12A4.2,4.2,0,0,1,295.6,267V169.7a1.45,1.45,0,0,1,2.33-1.34l21.43,12.37c1,.56,2.49,1.55,3.39,2.2l12.08,8.81a4.77,4.77,0,0,1,1.78,3.49v73.6a1.52,1.52,0,0,1-.66,1.41,1.58,1.58,0,0,1-1.62-.14c-2.82-1.62-8.31-4-13.29-2-4.82,1.94-6.37,6.53-6.87,9.1a1.88,1.88,0,0,1-1,1.41A1.42,1.42,0,0,1,312.58,278.7ZM297,168.87a.51.51,0,0,0-.25.06.85.85,0,0,0-.31.77V267a3.44,3.44,0,0,0,1.53,2.65L312,277.72a1,1,0,0,0,.86.12,1.06,1.06,0,0,0,.53-.83c.53-2.73,2.19-7.62,7.37-9.69s11,.4,14,2.09c.34.19.64.25.82.14a.81.81,0,0,0,.27-.72v-73.6a4,4,0,0,0-1.46-2.85l-12.08-8.8c-.89-.64-2.37-1.61-3.32-2.16l-21.43-12.37A1.17,1.17,0,0,0,297,168.87Z"></path></g><path d="M284.53,164.83,180.83,105c-1-.55-1.73-.1-1.73,1v58.9a3.8,3.8,0,0,0,1.73,3l103.7,59.88c1,.55,1.73.1,1.73-1v-58.9A3.82,3.82,0,0,0,284.53,164.83Z" style="fill:#37474f"></path><polygon points="286.26 224.98 179.1 163.11 169.36 168.73 276.52 230.6 286.26 224.98" style="fill:#f5f5f5"></polygon><polygon points="169.36 168.73 169.36 172.48 276.52 234.35 276.52 230.6 169.36 168.73" style="fill:#ebebeb"></polygon><polygon points="276.52 234.35 286.26 228.73 286.26 224.98 276.52 230.6 276.52 234.35" style="fill:#e0e0e0"></polygon><polygon points="286.26 177.08 286.26 165.83 263.53 190.2 286.26 177.08" style="fill:#e0e0e0"></polygon><path d="M156.36,134a10.73,10.73,0,0,0,4.85,8.4l0,0c2.68,1.54,4.85.29,4.85-2.8V134l-9.75-5.63Z" style="fill:#e6e6e6"></path><path d="M175.85,145.23a10.74,10.74,0,0,0,4.84,8.4l.05,0c2.68,1.54,4.85.29,4.85-2.8v-5.65l-9.74-5.63Z" style="fill:#e6e6e6"></path><path d="M195.33,156.48a10.73,10.73,0,0,0,4.85,8.4l0,0c2.67,1.54,4.84.29,4.84-2.8v-5.66l-9.74-5.62Z" style="fill:#e6e6e6"></path><path d="M214.81,167.73a10.73,10.73,0,0,0,4.85,8.4l.05,0c2.68,1.55,4.85.3,4.85-2.79V167.7l-9.75-5.62Z" style="fill:#e6e6e6"></path><path d="M234.3,179a10.74,10.74,0,0,0,4.84,8.4l.05,0c2.68,1.55,4.85.3,4.85-2.79V179l-9.74-5.62Z" style="fill:#e6e6e6"></path><path d="M253.78,190.23a10.69,10.69,0,0,0,4.85,8.39l.05,0c2.68,1.55,4.85.3,4.85-2.8V190.2l-9.75-5.62Z" style="fill:#e6e6e6"></path><path d="M166.11,139.61A10.68,10.68,0,0,0,171,148l.05,0c2.68,1.55,4.85.29,4.85-2.8v-5.65L166.1,134Z" style="fill:#3DDC97"></path><path d="M185.59,150.86a10.69,10.69,0,0,0,4.85,8.39l0,0c2.68,1.55,4.85.29,4.85-2.8v-5.65l-9.74-5.63Z" style="fill:#3DDC97"></path><path d="M205.07,162.11a10.69,10.69,0,0,0,4.85,8.39l.05,0c2.68,1.55,4.84.29,4.84-2.8v-5.65l-9.74-5.63Z" style="fill:#3DDC97"></path><path d="M224.56,173.36a10.71,10.71,0,0,0,4.84,8.39l0,0c2.68,1.54,4.85.29,4.85-2.8v-5.65l-9.74-5.63Z" style="fill:#3DDC97"></path><path d="M244,184.61a10.71,10.71,0,0,0,4.85,8.39l.05,0c2.67,1.54,4.84.29,4.84-2.8v-5.65L244,179Z" style="fill:#3DDC97"></path><g style="opacity:0.30000000000000004"><path d="M166.11,139.61A10.68,10.68,0,0,0,171,148l.05,0c2.68,1.55,4.85.29,4.85-2.8v-5.65L166.1,134Z"></path><path d="M185.59,150.86a10.69,10.69,0,0,0,4.85,8.39l0,0c2.68,1.55,4.85.29,4.85-2.8v-5.65l-9.74-5.63Z"></path><path d="M205.07,162.11a10.69,10.69,0,0,0,4.85,8.39l.05,0c2.68,1.55,4.84.29,4.84-2.8v-5.65l-9.74-5.63Z"></path><path d="M224.56,173.36a10.71,10.71,0,0,0,4.84,8.39l0,0c2.68,1.54,4.85.29,4.85-2.8v-5.65l-9.74-5.63Z"></path><path d="M244,184.61a10.71,10.71,0,0,0,4.85,8.39l.05,0c2.67,1.54,4.84.29,4.84-2.8v-5.65L244,179Z"></path></g><polygon points="263.53 190.2 156.36 128.33 179.1 103.96 286.26 165.83 263.53 190.2" style="fill:#fafafa"></polygon><polygon points="253.78 184.58 276.52 160.21 266.78 154.58 244.04 178.95 253.78 184.58" style="fill:#3DDC97"></polygon><polygon points="234.3 173.33 257.04 148.96 247.29 143.33 224.56 167.7 234.3 173.33" style="fill:#3DDC97"></polygon><polygon points="214.82 162.08 237.55 137.71 227.81 132.08 205.07 156.45 214.82 162.08" style="fill:#3DDC97"></polygon><polygon points="195.34 150.83 218.07 126.46 208.33 120.84 185.59 145.21 195.34 150.83" style="fill:#3DDC97"></polygon><polygon points="175.85 139.58 198.59 115.21 188.84 109.59 166.11 133.96 175.85 139.58" style="fill:#3DDC97"></polygon><path d="M338.22,234.06v14.12c0,1.41.93,2.21,2.12,2.81s-1-16.26-1-16.26Z" style="fill:#e0e0e0"></path><path d="M339.34,234.73v13.54c0,2.63,1.52,3.88,3.8,2.56l1.75-1a9.09,9.09,0,0,0,4.11-7.13V229.16Z" style="fill:#ebebeb"></path><polygon points="349 229.16 347.87 228.48 338.22 234.06 339.34 234.73 349 229.16" style="fill:#fafafa"></polygon><path d="M346.37,255a3,3,0,0,1-1.5-.41,3,3,0,0,1-1.5-2.6V239.51a.8.8,0,0,1,1.6,0V252a1.41,1.41,0,0,0,2.1,1.22l6.35-3.67a.8.8,0,1,1,.8,1.39l-6.35,3.66A3,3,0,0,1,346.37,255Z" style="fill:#3DDC97"></path><path d="M346.37,255a3,3,0,0,1-1.5-.41,3,3,0,0,1-1.5-2.6V239.51a.8.8,0,0,1,1.6,0V252a1.41,1.41,0,0,0,2.1,1.22l6.35-3.67a.8.8,0,1,1,.8,1.39l-6.35,3.66A3,3,0,0,1,346.37,255Z" style="opacity:0.5"></path><path d="M455.57,266.85s-11.09,15.34-35.27,29.79c-20.08,12-42,14.81-42,14.81l-2.86-34.71,77.24-44.6Z" style="fill:#3DDC97"></path><path d="M455.57,266.85s-11.09,15.34-35.27,29.79c-20.08,12-42,14.81-42,14.81l-2.86-34.71,77.24-44.6Z" style="opacity:0.30000000000000004"></path><path d="M452.72,232.14s-11.1,15.34-35.28,29.79c-20.07,12-42,14.81-42,14.81L360,253.93l77.23-44.59Z" style="fill:#3DDC97"></path><path d="M457,261.74c-.14-.14-.27-.12-.41.13,0,0-11.09,15.32-35.28,29.78-20.07,12-41.95,14.81-41.95,14.81-9.39.86-20.88-9-20.88-9l1.58-1.16s10.9,8.26,16.44,8.26c4.77,0,21.84-2.17,45-15.25s33.63-29,33.63-29A2.43,2.43,0,0,1,457,261.74Z" style="fill:#37474f"></path><path d="M456.54,261.86s-11.09,15.34-35.28,29.79c-20.07,12-41.95,14.81-41.95,14.81-9.39.85-20.88-9-20.88-9h0v13.24s11.49,9.9,20.88,9.05c0,0,21.88-2.81,41.95-14.81,24.19-14.45,35.28-29.79,35.28-29.79C458.45,271.83,457.66,259.9,456.54,261.86Z" style="fill:#455a64"></path><path d="M385.71,283.68a5.65,5.65,0,0,1,7,5.22,7.67,7.67,0,0,1-5.65,8.18,5.63,5.63,0,0,1-7-5.22A7.84,7.84,0,0,1,385.71,283.68Z" style="fill:#fff"></path><path d="M447.16,248.51c-2.1,2.09-3.44,6.58-3,10s2.4,4.53,4.39,2.43,3.33-6.6,3-10S449.26,246.42,447.16,248.51Z" style="fill:#fff"></path><path d="M398.59,279.15a90.17,90.17,0,0,0,19.1-8.56c.95-.55,1.71-.12,1.71,1V273a3.86,3.86,0,0,1-1.71,3,90.63,90.63,0,0,1-19.1,8.55,1.42,1.42,0,0,1-1.92-1.45v-1.4A2.81,2.81,0,0,1,398.59,279.15Z" style="fill:#37474f"></path><path d="M440.17,256.46v1.39a4.83,4.83,0,0,1-1.53,3.29,161.69,161.69,0,0,1-14.32,10.72c-.92.61-1.67.19-1.67-.91v-1.4a4.14,4.14,0,0,1,1.67-3.09,163.67,163.67,0,0,0,14.32-10.71C439.49,255,440.17,255.35,440.17,256.46Z" style="fill:#37474f"></path><path d="M398.59,289a90.17,90.17,0,0,0,19.1-8.56c.95-.55,1.71-.12,1.71,1v1.4a3.85,3.85,0,0,1-1.71,3,91.19,91.19,0,0,1-19.1,8.56,1.43,1.43,0,0,1-1.92-1.46v-1.4A2.81,2.81,0,0,1,398.59,289Z" style="fill:#37474f"></path><path d="M440.17,266.26v1.4a4.82,4.82,0,0,1-1.53,3.28,161.69,161.69,0,0,1-14.32,10.72c-.92.61-1.67.19-1.67-.91v-1.4a4.14,4.14,0,0,1,1.67-3.09,163.67,163.67,0,0,0,14.32-10.71C439.49,264.84,440.17,265.15,440.17,266.26Z" style="fill:#37474f"></path><path d="M401.47,239.87a258.72,258.72,0,0,1-31.84,14.5,1.51,1.51,0,0,0-.76,2.36l.06.08a3.17,3.17,0,0,0,3.07,1.27c4.7-1,17.38-4.32,33.14-12.79a1.79,1.79,0,0,0,.63-2.62l-1.43-2.12A2.23,2.23,0,0,0,401.47,239.87Z" style="opacity:0.15"></path><path d="M434.45,217a191.55,191.55,0,0,1-26.27,19,1.86,1.86,0,0,0-.6,2.67l1.45,2.14a2.15,2.15,0,0,0,2.84.63c14.3-8.61,21.94-16.19,25.44-20.31a2.83,2.83,0,0,0,.14-3.21l-.39-.59A1.71,1.71,0,0,0,434.45,217Z" style="opacity:0.15"></path><path d="M437.25,209.33s-12.76,12.84-33.8,25.08A253.34,253.34,0,0,1,360,253.92l-12.08-58.51,48.27-27.86,22.2-12.81,6.77-3.92Z" style="fill:#455a64"></path><path d="M425.17,150.82l-6.77,3.92-22.2,12.81-48.27,27.86L360,253.92a253.34,253.34,0,0,0,43.44-19.51c21-12.24,33.8-25.08,33.8-25.08ZM397.58,235A257.81,257.81,0,0,1,364,250a2,2,0,0,1-2.71-1.52l-7.42-37a3.51,3.51,0,0,1,1.57-3.52l31.32-18.09A1.69,1.69,0,0,1,389.4,191l9.7,40.52A3.27,3.27,0,0,1,397.58,235Zm6.21-3.45a1.66,1.66,0,0,1-2.6-1.12l-9.64-40.51a3.41,3.41,0,0,1,1.52-3.52L399,183l24.17-14,1.07-.62a1.62,1.62,0,0,1,2.54,1.14l7.38,36.71a4.62,4.62,0,0,1-1.28,3.92A194.07,194.07,0,0,1,403.79,231.53Z" style="fill:#3DDC97"></path><path d="M425.17,150.82l-6.77,3.92-22.2,12.81-48.27,27.86L360,253.92a253.34,253.34,0,0,0,43.44-19.51c21-12.24,33.8-25.08,33.8-25.08ZM397.58,235A257.81,257.81,0,0,1,364,250a2,2,0,0,1-2.71-1.52l-7.42-37a3.51,3.51,0,0,1,1.57-3.52l31.32-18.09A1.69,1.69,0,0,1,389.4,191l9.7,40.52A3.27,3.27,0,0,1,397.58,235Zm6.21-3.45a1.66,1.66,0,0,1-2.6-1.12l-9.64-40.51a3.41,3.41,0,0,1,1.52-3.52L399,183l24.17-14,1.07-.62a1.62,1.62,0,0,1,2.54,1.14l7.38,36.71a4.62,4.62,0,0,1-1.28,3.92A194.07,194.07,0,0,1,403.79,231.53Z" style="opacity:0.30000000000000004"></path><path d="M354.34,204.87,424,164.62a2.74,2.74,0,0,0,1.23-2.73L424,155.6a1.24,1.24,0,0,0-2-.88L352.34,195a2.74,2.74,0,0,0-1.23,2.73l1.26,6.28A1.25,1.25,0,0,0,354.34,204.87Z" style="fill:#455a64"></path><path d="M399.11,231.53a3.27,3.27,0,0,1-1.53,3.44A256.79,256.79,0,0,1,364,250a2,2,0,0,1-2.71-1.52l-.49-2.44c6.77-4.93,23.22-16.67,35.84-24l.15-.09Z" style="fill:#37474f"></path><path d="M433.48,209.45a3.27,3.27,0,0,1-.58.69,193.06,193.06,0,0,1-29.12,21.39,1.65,1.65,0,0,1-2.59-1.12l-2.28-9.6a219,219,0,0,1,30.62-13.95Z" style="fill:#37474f"></path><path d="M428.61,201.51l-8.44-4.87a7.65,7.65,0,0,1-3.46-6V172.73l6.48-3.74,1.07-.62.09-.05,6.14,31.86C430.78,201.68,429.94,202.28,428.61,201.51Z" style="fill:#fff;opacity:0.1"></path><path d="M410.56,176.29V188.7c0,1.32-.92,1.86-2.08,1.19l-10.73-6.19L399,183Z" style="fill:#fff;opacity:0.1"></path><polygon points="398.63 131.31 398.62 131.31 243.35 41.67 166.11 86.25 321.39 175.89 347.93 195.4 425.17 150.81 398.63 131.31" style="fill:#3DDC97"></polygon><path d="M383.45,123.62c-15.34-8.86-40.22-8.86-55.57,0-7.66,4.42-11.47,10.21-11.47,16,0,1.26,0,6.21,0,7.45,0,5.81,3.79,11.62,11.47,16.06,15.35,8.86,40.23,8.86,55.57,0,7.66-4.43,11.47-10.22,11.48-16v-7.46C394.93,133.85,391.12,128.05,383.45,123.62Z" style="fill:#ffbda7"></path><ellipse cx="355.67" cy="139.66" rx="39.3" ry="22.69" style="fill:#f0997a"></ellipse><path d="M383.45,114.29c-15.34-8.86-40.22-8.86-55.57,0-7.66,4.42-11.47,10.21-11.47,16,0,1.26,0,6.21,0,7.44,0,5.82,3.79,11.63,11.47,16.06,15.35,8.86,40.23,8.86,55.57,0,7.66-4.42,11.47-10.21,11.48-16v-7.47C394.93,124.52,391.12,118.72,383.45,114.29Z" style="fill:#b16668"></path><ellipse cx="355.67" cy="130.33" rx="39.3" ry="22.69" style="fill:#9a4a4d"></ellipse><path d="M383.52,122H327.81c-6.2,9.06-6.19,23.49-6.2,26.32s.34,4.62,5,3.61,17.08-3.5,29.1-3.5,24.47,2.48,29.09,3.5,5-.78,5-3.61S389.72,131.05,383.52,122Z" style="fill:#f0f0f0"></path><path d="M323,142.22a9.13,9.13,0,0,0,5.46,4.19c2.22.56,4.55.35,6.82.69,4.66.7,7.8,3.88,12,5.57a12.67,12.67,0,0,0,5.58.88,20.25,20.25,0,0,0,6.15-1.61c3.15-1.26,6.18-2.84,9.42-3.81a17.25,17.25,0,0,1,7.87-.68,10.55,10.55,0,0,0,6.5-.66c3.87-1.83,5.19-6.84,8.7-9.29,2.77-1.94,6.85-2.28,8.48-5.24,1.17-2.12.48-4.9-1.1-6.74a14.09,14.09,0,0,0-6.13-3.74,56.24,56.24,0,0,0-13.22-2.69c-10.11-1-20.26-1.64-30.41-1.9s-19.75-.59-29.46,2.52a17.85,17.85,0,0,0-6.19,3.06,7.42,7.42,0,0,0-2.81,6.07c.21,2.17,2.2,3.91,3.92,5.08,1.18.81,2.55,1.34,3.69,2.22C320.4,137.8,321.56,140.15,323,142.22Z" style="fill:#3DDC97"></path><path d="M323,142.22a9.13,9.13,0,0,0,5.46,4.19c2.22.56,4.55.35,6.82.69,4.66.7,7.8,3.88,12,5.57a12.67,12.67,0,0,0,5.58.88,20.25,20.25,0,0,0,6.15-1.61c3.15-1.26,6.18-2.84,9.42-3.81a17.25,17.25,0,0,1,7.87-.68,10.55,10.55,0,0,0,6.5-.66c3.87-1.83,5.19-6.84,8.7-9.29,2.77-1.94,6.85-2.28,8.48-5.24,1.17-2.12.48-4.9-1.1-6.74a14.09,14.09,0,0,0-6.13-3.74,56.24,56.24,0,0,0-13.22-2.69c-10.11-1-20.26-1.64-30.41-1.9s-19.75-.59-29.46,2.52a17.85,17.85,0,0,0-6.19,3.06,7.42,7.42,0,0,0-2.81,6.07c.21,2.17,2.2,3.91,3.92,5.08,1.18.81,2.55,1.34,3.69,2.22C320.4,137.8,321.56,140.15,323,142.22Z" style="fill:#fff;opacity:0.4"></path><path d="M396.24,118.43l-.09-.32c-3.59-13.72-20.35-24-40.47-24s-36.91,10.33-40.5,24l-.08.32a13.83,13.83,0,0,0-.64,4.65c.18,6,4.19,11.88,12.06,16.39,16.1,9.3,42.19,9.3,58.29,0,7.84-4.51,11.89-10.42,12.06-16.39A13.57,13.57,0,0,0,396.24,118.43Z" style="fill:#ffbda7"></path><path d="M387.93,132.41c-10.27,7.83-36.54,10.41-53,2.11S317.76,112.17,323,105.64a26.45,26.45,0,0,0-7.81,12.47l-.08.32a13.83,13.83,0,0,0-.64,4.65c.18,6,4.19,11.88,12.06,16.39,16.1,9.3,42.19,9.3,58.29,0,7.84-4.51,11.89-10.42,12.06-16.39a13.57,13.57,0,0,0-.63-4.65S396.88,125.59,387.93,132.41Z" style="fill:#f0997a"></path><g style="opacity:0.7000000000000001"><path d="M387.76,127.22a1.58,1.58,0,1,1,2.55,1.86,1.58,1.58,0,1,1-2.55-1.86Z" style="fill:#fff"></path><path d="M390.12,113a1.58,1.58,0,1,1,.35,2.2A1.57,1.57,0,0,1,390.12,113Z" style="fill:#fff"></path><path d="M375,133.86a1.58,1.58,0,1,1,.35,2.21A1.59,1.59,0,0,1,375,133.86Z" style="fill:#fff"></path><path d="M377.32,119.64a1.58,1.58,0,1,1,.35,2.21A1.58,1.58,0,0,1,377.32,119.64Z" style="fill:#fff"></path><path d="M366.89,112.06a1.58,1.58,0,1,1,.35,2.21A1.58,1.58,0,0,1,366.89,112.06Z" style="fill:#fff"></path><path d="M379.69,105.42a1.58,1.58,0,1,1,.35,2.2A1.56,1.56,0,0,1,379.69,105.42Z" style="fill:#fff"></path><path d="M369.25,97.84a1.58,1.58,0,1,1,.35,2.2A1.57,1.57,0,0,1,369.25,97.84Z" style="fill:#fff"></path><path d="M362.16,140.5a1.58,1.58,0,1,1,.35,2.21A1.59,1.59,0,0,1,362.16,140.5Z" style="fill:#fff"></path><path d="M351.73,132.92a1.58,1.58,0,0,1,2.56,1.86,1.58,1.58,0,1,1-2.56-1.86Z" style="fill:#fff"></path><path d="M364.53,126.28a1.58,1.58,0,1,1,.35,2.21A1.58,1.58,0,0,1,364.53,126.28Z" style="fill:#fff"></path><path d="M354.09,118.7a1.58,1.58,0,1,1,.35,2.21A1.59,1.59,0,0,1,354.09,118.7Z" style="fill:#fff"></path><path d="M338.93,139.57a1.58,1.58,0,1,1,.35,2.2A1.57,1.57,0,0,1,338.93,139.57Z" style="fill:#fff"></path><path d="M356.46,104.48a1.58,1.58,0,1,1,.35,2.21A1.57,1.57,0,0,1,356.46,104.48Z" style="fill:#fff"></path><path d="M346,96.9a1.58,1.58,0,1,1,.35,2.21A1.58,1.58,0,0,1,346,96.9Z" style="fill:#fff"></path><path d="M341.3,125.34a1.58,1.58,0,1,1,2.55,1.86,1.58,1.58,0,1,1-2.55-1.86Z" style="fill:#fff"></path><path d="M330.86,117.76a1.58,1.58,0,1,1,.35,2.21A1.58,1.58,0,0,1,330.86,117.76Z" style="fill:#fff"></path><path d="M343.66,111.12a1.58,1.58,0,1,1,.35,2.21A1.59,1.59,0,0,1,343.66,111.12Z" style="fill:#fff"></path><path d="M333.23,103.54a1.58,1.58,0,1,1,2.55,1.86,1.58,1.58,0,1,1-2.55-1.86Z" style="fill:#fff"></path><path d="M328.5,132a1.57,1.57,0,0,1,2.21-.35,1.58,1.58,0,1,1-1.86,2.55A1.57,1.57,0,0,1,328.5,132Z" style="fill:#fff"></path><path d="M318.07,124.41a1.57,1.57,0,0,1,2.21-.35,1.58,1.58,0,1,1-2.21.35Z" style="fill:#fff"></path><path d="M320.43,110.18a1.58,1.58,0,1,1,.35,2.21A1.58,1.58,0,0,1,320.43,110.18Z" style="fill:#fff"></path></g><path d="M310.1,95.25,237.22,53.17a2.62,2.62,0,0,0-2.63-.26c-.68.39-6.31,3.65-7,4a2.64,2.64,0,0,0-1.09,2.42V87.05a8.24,8.24,0,0,0,3.73,6.45l72.87,42.07a2.59,2.59,0,0,0,2.63.26l7-4a2.62,2.62,0,0,0,1.1-2.42V101.7A8.24,8.24,0,0,0,310.1,95.25Z" style="fill:#e0e0e0"></path><path d="M312.73,98l-7,4a7.51,7.51,0,0,0-2.63-2.78L230.24,57.2a2.72,2.72,0,0,0-2.55-.3l6.9-4a2.64,2.64,0,0,1,2.63.26L310.1,95.25A7.64,7.64,0,0,1,312.73,98Z" style="fill:#fafafa"></path><path d="M226.51,87.05V59.36a2.27,2.27,0,0,1,3.73-2.15l72.87,42.07a8.22,8.22,0,0,1,3.73,6.45v27.69c0,2.38-1.67,3.34-3.73,2.15L230.24,93.5A8.24,8.24,0,0,1,226.51,87.05Z" style="fill:#f0f0f0"></path><path d="M232.72,86.58a2.45,2.45,0,0,1-.18-1V66.87a1.16,1.16,0,0,1,.18-.78c.12-.12.3-.11.55,0l3.49,2a8,8,0,0,1,4.11,7.45c0,2.25-.59,3.57-1.76,4l0,.13a7.11,7.11,0,0,1,1.56,2.65,10.66,10.66,0,0,1,.57,3.55c0,1.78-.38,3-1.12,3.65s-1.86.56-3.32-.28l-3.55-2.06A1.28,1.28,0,0,1,232.72,86.58Zm4.06-9.85q.63.36.93-.09a3.43,3.43,0,0,0,.31-1.76,5.73,5.73,0,0,0-.29-2,2.07,2.07,0,0,0-.91-1.08l-1.38-.8v5Zm.14,8.92c.48.28.84.27,1.07,0a3.44,3.44,0,0,0,.34-1.87,5.71,5.71,0,0,0-.33-2.17,2.47,2.47,0,0,0-1.08-1.2l-1.48-.86v5.26Z" style="fill:#455a64"></path><path d="M244.21,92.06A11.7,11.7,0,0,1,243,86.61v-14c0-.64.38-.75,1.13-.31l.78.45A1.9,1.9,0,0,1,246,74.38V88.07a5.6,5.6,0,0,0,.45,2.26,3.06,3.06,0,0,0,1.21,1.47.88.88,0,0,0,1.2-.09,2.57,2.57,0,0,0,.46-1.72V76.3c0-.65.38-.75,1.13-.31l.77.44a1.88,1.88,0,0,1,1.13,1.62V92c0,2-.41,3.36-1.24,4s-2,.55-3.45-.3A8.86,8.86,0,0,1,244.21,92.06Z" style="fill:#455a64"></path><path d="M254.41,99.45V79.53a1.16,1.16,0,0,1,.19-.81c.12-.12.32-.1.59.06l3.27,1.88a7.65,7.65,0,0,1,2.89,3,10.8,10.8,0,0,1,1.1,5.19q0,3.52-1.86,4V93a6.37,6.37,0,0,1,.78,1.65,14.48,14.48,0,0,1,.53,2.11l1.15,6.44.06.4c0,.54-.4.58-1.21.11l-.69-.39a2.13,2.13,0,0,1-1.17-1.49l-1-6.32a4.27,4.27,0,0,0-.4-1.16,1.73,1.73,0,0,0-.71-.68l-.47-.27v6.8c0,.64-.39.73-1.17.28l-.67-.38Zm4.11-9.79c.28.17.53.09.73-.23a3.64,3.64,0,0,0,.3-1.76,5.62,5.62,0,0,0-.3-2,2,2,0,0,0-.79-1.05l-1-.59v5Z" style="fill:#455a64"></path><path d="M273,98.08a2.64,2.64,0,0,1,.17,1v9a.85.85,0,0,1-.59.9,2.63,2.63,0,0,1-1.48,0,6.09,6.09,0,0,1-1.68-.67,9.33,9.33,0,0,1-4-5,25.42,25.42,0,0,1-1.3-9q0-5.42,1.3-7.3c.88-1.26,2.23-1.36,4.07-.3a8.67,8.67,0,0,1,1.7,1.29,9.22,9.22,0,0,1,1.33,1.58A2.61,2.61,0,0,1,273,91a2.64,2.64,0,0,1-.21.93,2.77,2.77,0,0,1-.5.87c-.19.22-.37.28-.52.19a2.37,2.37,0,0,1-.41-.46,9.44,9.44,0,0,0-.75-.82,4.92,4.92,0,0,0-1-.73,1.14,1.14,0,0,0-1.84.56,12.86,12.86,0,0,0-.59,4.72,20.32,20.32,0,0,0,.56,5.51,4.07,4.07,0,0,0,1.65,2.48,3,3,0,0,0,.8.34v-4.4l-1-.57a1,1,0,0,1-.43-.61,4,4,0,0,1-.14-1.22v-1a2.6,2.6,0,0,1,.14-1.07c.09-.19.23-.22.43-.11l3.22,1.86A1.28,1.28,0,0,1,273,98.08Z" style="fill:#455a64"></path><path d="M275.46,111.26a2.45,2.45,0,0,1-.18-1V91.58a1.22,1.22,0,0,1,.18-.81c.12-.13.3-.12.55,0l5.76,3.32a1,1,0,0,1,.43.61,4.37,4.37,0,0,1,.14,1.23v.93A2.73,2.73,0,0,1,282.2,98c-.09.19-.23.23-.43.12l-3.44-2v4.36l3.05,1.76a1,1,0,0,1,.43.61A4.34,4.34,0,0,1,282,104V105a2.76,2.76,0,0,1-.14,1.06c-.09.19-.23.23-.43.11l-3.05-1.76v4.88l3.46,2a.92.92,0,0,1,.42.6,4.35,4.35,0,0,1,.13,1.22V114a2.88,2.88,0,0,1-.13,1.07q-.12.28-.42.12L276,111.86A1.28,1.28,0,0,1,275.46,111.26Z" style="fill:#455a64"></path><path d="M284.16,116.62V96.7a1.22,1.22,0,0,1,.18-.81c.13-.12.32-.1.6.06l3.26,1.89a7.51,7.51,0,0,1,2.89,3,10.74,10.74,0,0,1,1.1,5.19c0,2.34-.62,3.68-1.86,4v.12a6.21,6.21,0,0,1,.78,1.65,13.58,13.58,0,0,1,.53,2.11l1.15,6.45.06.39c0,.54-.4.58-1.21.12l-.68-.4a2.17,2.17,0,0,1-1.18-1.49l-1-6.31a4.74,4.74,0,0,0-.4-1.17,1.87,1.87,0,0,0-.71-.68l-.47-.27v6.8c0,.64-.39.74-1.18.28l-.66-.38Zm4.1-9.78c.29.16.53.08.73-.24a3.48,3.48,0,0,0,.31-1.75,5.45,5.45,0,0,0-.31-2,2,2,0,0,0-.79-1l-1-.6v5Z" style="fill:#455a64"></path><path d="M295.26,122.78a6.68,6.68,0,0,1-1.37-2,3.52,3.52,0,0,1-.25-1.2,3.93,3.93,0,0,1,.29-1.55c.19-.47.41-.63.64-.5a2.24,2.24,0,0,1,.5.59l.5.71a5,5,0,0,0,1.35,1.38,1.16,1.16,0,0,0,1.05.16c.3-.13.45-.55.45-1.28a4.74,4.74,0,0,0-.23-1.52,6.1,6.1,0,0,0-.58-1.26c-.23-.37-.55-.86-1-1.47a18.29,18.29,0,0,1-2.14-4,12.31,12.31,0,0,1-.67-4.27c0-1.8.38-3,1.13-3.59s1.74-.53,3,.18a7.3,7.3,0,0,1,1.4,1.13,7.78,7.78,0,0,1,1.16,1.44,2.43,2.43,0,0,1,.35,1.25,5.3,5.3,0,0,1-.23,1.53c-.15.49-.33.67-.55.55a2.84,2.84,0,0,1-.57-.57,5.61,5.61,0,0,0-1.27-1.19c-.52-.3-.88-.33-1.08-.1a1.51,1.51,0,0,0-.29,1,4.53,4.53,0,0,0,.38,1.92,15.34,15.34,0,0,0,1.2,2l.45.65a16.1,16.1,0,0,1,1.95,3.71,12.46,12.46,0,0,1,.59,4,7.65,7.65,0,0,1-.46,2.84,2.36,2.36,0,0,1-1.43,1.48,3,3,0,0,1-2.37-.49A8.58,8.58,0,0,1,295.26,122.78Z" style="fill:#455a64"></path></g></svg>